<?xml version="1.0" encoding="UTF-8" standalone="no"?>
<!DOCTYPE svg PUBLIC "-//W3C//DTD SVG 1.1//EN" "http://www.w3.org/Graphics/SVG/1.1/DTD/svg11.dtd">
<!-- Generated by graphviz version 2.40.1 (20161225.0304)
 -->
<!-- Title: G Pages: 1 -->
<svg width="2439pt" height="1667pt" viewBox="0.00 0.00 2439.20 1667.38" xmlns="http://www.w3.org/2000/svg" xmlns:xlink="http://www.w3.org/1999/xlink">
<g id="graph0" class="graph" transform="scale(1 1) rotate(0) translate(4 1663.3812)">
<title>G</title>
<polygon fill="#ffffff" stroke="transparent" points="-4,4 -4,-1663.3812 2435.2034,-1663.3812 2435.2034,4 -4,4"/>
<!-- main -->
<g id="node1" class="node">
<title>main</title>
<polygon fill="#ff7f7f" stroke="#000000" points="724.7732,-1106.7917 670.7732,-1106.7917 670.7732,-1070.7917 724.7732,-1070.7917 724.7732,-1106.7917"/>
<text text-anchor="middle" x="697.7732" y="-1084.5917" font-family="Times,serif" font-size="14.00" fill="#000000">main</text>
</g>
<!-- robot_control_loop -->
<g id="node2" class="node">
<title>robot_control_loop</title>
<polygon fill="#add8e6" stroke="#000000" points="514.6537,-1249.114 390.4572,-1249.114 390.4572,-1213.114 514.6537,-1213.114 514.6537,-1249.114"/>
<text text-anchor="middle" x="452.5554" y="-1226.914" font-family="Times,serif" font-size="14.00" fill="#000000">robot_control_loop</text>
</g>
<!-- main&#45;&gt;robot_control_loop -->
<g id="edge1" class="edge">
<title>main-&gt;robot_control_loop</title>
<path fill="none" stroke="#000000" d="M670.5937,-1104.5665C627.3935,-1129.6394 542.8292,-1178.7199 492.6562,-1207.8399"/>
<polygon fill="#000000" stroke="#000000" points="490.5977,-1204.9878 483.7057,-1213.0346 494.1115,-1211.042 490.5977,-1204.9878"/>
</g>
<!-- capture_and_update_shared_resources -->
<g id="node3" class="node">
<title>capture_and_update_shared_resources</title>
<polygon fill="#add8e6" stroke="#000000" points="981.7666,-262.8253 749.5305,-262.8253 749.5305,-226.8253 981.7666,-226.8253 981.7666,-262.8253"/>
<text text-anchor="middle" x="865.6485" y="-240.6253" font-family="Times,serif" font-size="14.00" fill="#000000">capture_and_update_shared_resources</text>
</g>
<!-- main&#45;&gt;capture_and_update_shared_resources -->
<g id="edge2" class="edge">
<title>main-&gt;capture_and_update_shared_resources</title>
<path fill="none" stroke="#000000" d="M701.3572,-1070.7738C722.7565,-963.192 833.6143,-405.8721 860.0052,-273.1963"/>
<polygon fill="#000000" stroke="#000000" points="863.5086,-273.5237 862.0268,-263.033 856.6431,-272.158 863.5086,-273.5237"/>
</g>
<!-- visualize_robot_behavior -->
<g id="node4" class="node">
<title>visualize_robot_behavior</title>
<polygon fill="#add8e6" stroke="#000000" points="944.9406,-1358.0349 786.3565,-1358.0349 786.3565,-1322.0349 944.9406,-1322.0349 944.9406,-1358.0349"/>
<text text-anchor="middle" x="865.6485" y="-1335.8349" font-family="Times,serif" font-size="14.00" fill="#000000">visualize_robot_behavior</text>
</g>
<!-- main&#45;&gt;visualize_robot_behavior -->
<g id="edge3" class="edge">
<title>main-&gt;visualize_robot_behavior</title>
<path fill="none" stroke="#000000" d="M709.8464,-1106.8605C738.9953,-1150.485 813.3424,-1261.7533 847.718,-1313.2"/>
<polygon fill="#000000" stroke="#000000" points="844.9933,-1315.4221 853.4592,-1321.7923 850.8136,-1311.533 844.9933,-1315.4221"/>
</g>
<!-- connect_mqtt -->
<g id="node12" class="node">
<title>connect_mqtt</title>
<polygon fill="#90ee90" stroke="#000000" points="399.1907,-1076.6516 306.7778,-1076.6516 306.7778,-1040.6516 399.1907,-1040.6516 399.1907,-1076.6516"/>
<text text-anchor="middle" x="352.9843" y="-1054.4516" font-family="Times,serif" font-size="14.00" fill="#000000">connect_mqtt</text>
</g>
<!-- robot_control_loop&#45;&gt;connect_mqtt -->
<g id="edge4" class="edge">
<title>robot_control_loop-&gt;connect_mqtt</title>
<path fill="none" stroke="#000000" d="M442.0878,-1212.9835C424.533,-1182.5778 389.072,-1121.1575 368.5743,-1085.6544"/>
<polygon fill="#000000" stroke="#000000" points="371.4922,-1083.7083 363.4611,-1076.798 365.43,-1087.2083 371.4922,-1083.7083"/>
</g>
<!-- send_mqtt_command -->
<g id="node13" class="node">
<title>send_mqtt_command</title>
<polygon fill="#90ee90" stroke="#000000" points="221.8841,-1421.5763 85.7997,-1421.5763 85.7997,-1385.5763 221.8841,-1385.5763 221.8841,-1421.5763"/>
<text text-anchor="middle" x="153.8419" y="-1399.3763" font-family="Times,serif" font-size="14.00" fill="#000000">send_mqtt_command</text>
</g>
<!-- robot_control_loop&#45;&gt;send_mqtt_command -->
<g id="edge11" class="edge">
<title>robot_control_loop-&gt;send_mqtt_command</title>
<path fill="none" stroke="#000000" d="M421.1524,-1249.2445C366.5833,-1280.75 254.3391,-1345.5542 194.1202,-1380.3217"/>
<polygon fill="#000000" stroke="#000000" points="192.1826,-1377.3988 185.2724,-1385.43 195.6826,-1383.461 192.1826,-1377.3988"/>
</g>
<!-- get_bot_position -->
<g id="node14" class="node">
<title>get_bot_position</title>
<polygon fill="#90ee90" stroke="#000000" points="1468.3656,-36 1358.1411,-36 1358.1411,0 1468.3656,0 1468.3656,-36"/>
<text text-anchor="middle" x="1413.2533" y="-13.8" font-family="Times,serif" font-size="14.00" fill="#000000">get_bot_position</text>
</g>
<!-- robot_control_loop&#45;&gt;get_bot_position -->
<g id="edge35" class="edge">
<title>robot_control_loop-&gt;get_bot_position</title>
<path fill="none" stroke="#000000" d="M466.8815,-1213.0238C575.1161,-1076.3515 1263.5516,-207.0348 1392.4685,-44.2459"/>
<polygon fill="#000000" stroke="#000000" points="1395.3801,-46.207 1398.8446,-36.1946 1389.8924,-41.8611 1395.3801,-46.207"/>
</g>
<!-- calculate_distances -->
<g id="node15" class="node">
<title>calculate_distances</title>
<polygon fill="#90ee90" stroke="#000000" points="1771.6739,-94.95 1647.5559,-94.95 1647.5559,-58.95 1771.6739,-58.95 1771.6739,-94.95"/>
<text text-anchor="middle" x="1709.6149" y="-72.75" font-family="Times,serif" font-size="14.00" fill="#000000">calculate_distances</text>
</g>
<!-- robot_control_loop&#45;&gt;calculate_distances -->
<g id="edge34" class="edge">
<title>robot_control_loop-&gt;calculate_distances</title>
<path fill="none" stroke="#000000" d="M472.3008,-1212.9848C617.1206,-1080.0192 1514.2768,-256.2988 1682.4611,-101.8811"/>
<polygon fill="#000000" stroke="#000000" points="1684.9139,-104.3806 1689.913,-95.0392 1680.1797,-99.2243 1684.9139,-104.3806"/>
</g>
<!-- move_towards_goal -->
<g id="node16" class="node">
<title>move_towards_goal</title>
<polygon fill="#90ee90" stroke="#000000" points="653.8474,-1249.114 524.7909,-1249.114 524.7909,-1213.114 653.8474,-1213.114 653.8474,-1249.114"/>
<text text-anchor="middle" x="589.3191" y="-1226.914" font-family="Times,serif" font-size="14.00" fill="#000000">move_towards_goal</text>
</g>
<!-- robot_control_loop&#45;&gt;move_towards_goal -->
<g id="edge10" class="edge">
<title>robot_control_loop-&gt;move_towards_goal</title>
<path fill="none" stroke="#000000" d="M514.934,-1231.114C515.0353,-1231.114 515.1366,-1231.114 515.2379,-1231.114"/>
<polygon fill="#000000" stroke="#000000" points="514.681,-1234.6141 524.681,-1231.114 514.681,-1227.6141 514.681,-1234.6141"/>
</g>
<!-- get_head_position -->
<g id="node19" class="node">
<title>get_head_position</title>
<polygon fill="#90ee90" stroke="#000000" points="697.9745,-810.4301 579.6719,-810.4301 579.6719,-774.4301 697.9745,-774.4301 697.9745,-810.4301"/>
<text text-anchor="middle" x="638.8232" y="-788.2301" font-family="Times,serif" font-size="14.00" fill="#000000">get_head_position</text>
</g>
<!-- robot_control_loop&#45;&gt;get_head_position -->
<g id="edge5" class="edge">
<title>robot_control_loop-&gt;get_head_position</title>
<path fill="none" stroke="#000000" d="M460.2046,-1213.0992C489.1497,-1144.9299 592.0986,-902.4724 627.0865,-820.0715"/>
<polygon fill="#000000" stroke="#000000" points="630.3201,-821.4111 631.0069,-810.8385 623.8769,-818.6752 630.3201,-821.4111"/>
</g>
<!-- update_obstacles -->
<g id="node22" class="node">
<title>update_obstacles</title>
<polygon fill="#90ee90" stroke="#000000" points="2243.318,-810.4301 2132.0488,-810.4301 2132.0488,-774.4301 2243.318,-774.4301 2243.318,-810.4301"/>
<text text-anchor="middle" x="2187.6834" y="-788.2301" font-family="Times,serif" font-size="14.00" fill="#000000">update_obstacles</text>
</g>
<!-- robot_control_loop&#45;&gt;update_obstacles -->
<g id="edge6" class="edge">
<title>robot_control_loop-&gt;update_obstacles</title>
<path fill="none" stroke="#000000" d="M514.8211,-1215.3717C784.03,-1147.3089 1846.6866,-878.6427 2122.1728,-808.9929"/>
<polygon fill="#000000" stroke="#000000" points="2123.1855,-812.347 2132.0225,-806.5026 2121.4696,-805.5606 2123.1855,-812.347"/>
</g>
<!-- convert_grid_to_actual -->
<g id="node25" class="node">
<title>convert_grid_to_actual</title>
<polygon fill="#90ee90" stroke="#000000" points="1782.4622,-1525.9103 1636.7676,-1525.9103 1636.7676,-1489.9103 1782.4622,-1489.9103 1782.4622,-1525.9103"/>
<text text-anchor="middle" x="1709.6149" y="-1503.7103" font-family="Times,serif" font-size="14.00" fill="#000000">convert_grid_to_actual</text>
</g>
<!-- robot_control_loop&#45;&gt;convert_grid_to_actual -->
<g id="edge9" class="edge">
<title>robot_control_loop-&gt;convert_grid_to_actual</title>
<path fill="none" stroke="#000000" d="M514.8932,-1244.8404C722.5821,-1290.5721 1391.1494,-1437.7863 1626.6122,-1489.6336"/>
<polygon fill="#000000" stroke="#000000" points="1625.969,-1493.0758 1636.4877,-1491.8082 1627.4744,-1486.2395 1625.969,-1493.0758"/>
</g>
<!-- plan_path -->
<g id="node26" class="node">
<title>plan_path</title>
<polygon fill="#90ee90" stroke="#000000" points="1996.5688,-1358.0349 1925.1474,-1358.0349 1925.1474,-1322.0349 1996.5688,-1322.0349 1996.5688,-1358.0349"/>
<text text-anchor="middle" x="1960.8581" y="-1335.8349" font-family="Times,serif" font-size="14.00" fill="#000000">plan_path</text>
</g>
<!-- robot_control_loop&#45;&gt;plan_path -->
<g id="edge8" class="edge">
<title>robot_control_loop-&gt;plan_path</title>
<path fill="none" stroke="#000000" d="M514.969,-1235.6211C765.7606,-1253.7319 1697.0602,-1320.985 1915.017,-1336.7245"/>
<polygon fill="#000000" stroke="#000000" points="1914.9193,-1340.2265 1925.1455,-1337.456 1915.4236,-1333.2447 1914.9193,-1340.2265"/>
</g>
<!-- find_nearest_edge_midpoint_to_robot -->
<g id="node27" class="node">
<title>find_nearest_edge_midpoint_to_robot</title>
<polygon fill="#90ee90" stroke="#000000" points="812.8977,-514.0685 582.6487,-514.0685 582.6487,-478.0685 812.8977,-478.0685 812.8977,-514.0685"/>
<text text-anchor="middle" x="697.7732" y="-491.8685" font-family="Times,serif" font-size="14.00" fill="#000000">find_nearest_edge_midpoint_to_robot</text>
</g>
<!-- robot_control_loop&#45;&gt;find_nearest_edge_midpoint_to_robot -->
<g id="edge7" class="edge">
<title>robot_control_loop-&gt;find_nearest_edge_midpoint_to_robot</title>
<path fill="none" stroke="#000000" d="M458.617,-1212.9442C491.5109,-1114.3441 648.5709,-643.5535 688.5157,-523.818"/>
<polygon fill="#000000" stroke="#000000" points="691.8594,-524.8549 691.7039,-514.2612 685.2191,-522.6396 691.8594,-524.8549"/>
</g>
<!-- pickup_waste -->
<g id="node28" class="node">
<title>pickup_waste</title>
<polygon fill="#90ee90" stroke="#000000" points="399.4605,-1421.5763 306.508,-1421.5763 306.508,-1385.5763 399.4605,-1385.5763 399.4605,-1421.5763"/>
<text text-anchor="middle" x="352.9843" y="-1399.3763" font-family="Times,serif" font-size="14.00" fill="#000000">pickup_waste</text>
</g>
<!-- robot_control_loop&#45;&gt;pickup_waste -->
<g id="edge12" class="edge">
<title>robot_control_loop-&gt;pickup_waste</title>
<path fill="none" stroke="#000000" d="M442.0878,-1249.2445C424.533,-1279.6502 389.072,-1341.0705 368.5743,-1376.5736"/>
<polygon fill="#000000" stroke="#000000" points="365.43,-1375.0197 363.4611,-1385.43 371.4922,-1378.5197 365.43,-1375.0197"/>
</g>
<!-- drop_off_waste -->
<g id="node29" class="node">
<title>drop_off_waste</title>
<polygon fill="#90ee90" stroke="#000000" points="205.6948,-1076.6516 101.989,-1076.6516 101.989,-1040.6516 205.6948,-1040.6516 205.6948,-1076.6516"/>
<text text-anchor="middle" x="153.8419" y="-1054.4516" font-family="Times,serif" font-size="14.00" fill="#000000">drop_off_waste</text>
</g>
<!-- robot_control_loop&#45;&gt;drop_off_waste -->
<g id="edge13" class="edge">
<title>robot_control_loop-&gt;drop_off_waste</title>
<path fill="none" stroke="#000000" d="M421.1524,-1212.9835C366.5833,-1181.478 254.3391,-1116.6738 194.1202,-1081.9063"/>
<polygon fill="#000000" stroke="#000000" points="195.6826,-1078.767 185.2724,-1076.798 192.1826,-1084.8292 195.6826,-1078.767"/>
</g>
<!-- disconnect_mqtt -->
<g id="node30" class="node">
<title>disconnect_mqtt</title>
<polygon fill="#90ee90" stroke="#000000" points="108.3131,-1249.114 .2283,-1249.114 .2283,-1213.114 108.3131,-1213.114 108.3131,-1249.114"/>
<text text-anchor="middle" x="54.2707" y="-1226.914" font-family="Times,serif" font-size="14.00" fill="#000000">disconnect_mqtt</text>
</g>
<!-- robot_control_loop&#45;&gt;disconnect_mqtt -->
<g id="edge14" class="edge">
<title>robot_control_loop-&gt;disconnect_mqtt</title>
<path fill="none" stroke="#000000" d="M390.3234,-1231.114C316.353,-1231.114 193.5363,-1231.114 118.6398,-1231.114"/>
<polygon fill="#000000" stroke="#000000" points="118.3997,-1227.6141 108.3997,-1231.114 118.3996,-1234.6141 118.3997,-1227.6141"/>
</g>
<!-- get_warped_frame -->
<g id="node5" class="node">
<title>get_warped_frame</title>
<polygon fill="#90ee90" stroke="#000000" points="2189.1761,-514.0685 2068.2908,-514.0685 2068.2908,-478.0685 2189.1761,-478.0685 2189.1761,-514.0685"/>
<text text-anchor="middle" x="2128.7335" y="-491.8685" font-family="Times,serif" font-size="14.00" fill="#000000">get_warped_frame</text>
</g>
<!-- capture_and_update_shared_resources&#45;&gt;get_warped_frame -->
<g id="edge16" class="edge">
<title>capture_and_update_shared_resources-&gt;get_warped_frame</title>
<path fill="none" stroke="#000000" d="M956.2329,-262.8437C1196.0026,-310.5368 1843.5031,-439.3327 2058.3692,-482.0722"/>
<polygon fill="#000000" stroke="#000000" points="2057.7799,-485.5235 2068.2706,-484.0417 2059.1455,-478.658 2057.7799,-485.5235"/>
</g>
<!-- detect_aruco_markers -->
<g id="node8" class="node">
<title>detect_aruco_markers</title>
<polygon fill="#90ee90" stroke="#000000" points="1186.4927,-94.95 1047.2908,-94.95 1047.2908,-58.95 1186.4927,-58.95 1186.4927,-94.95"/>
<text text-anchor="middle" x="1116.8917" y="-72.75" font-family="Times,serif" font-size="14.00" fill="#000000">detect_aruco_markers</text>
</g>
<!-- capture_and_update_shared_resources&#45;&gt;detect_aruco_markers -->
<g id="edge15" class="edge">
<title>capture_and_update_shared_resources-&gt;detect_aruco_markers</title>
<path fill="none" stroke="#000000" d="M893.0142,-226.5402C938.8203,-195.9335 1030.9648,-134.3646 1081.5881,-100.5391"/>
<polygon fill="#000000" stroke="#000000" points="1083.5699,-103.4244 1089.9401,-94.9585 1079.6808,-97.6041 1083.5699,-103.4244"/>
</g>
<!-- draw_lines_to_goal -->
<g id="node17" class="node">
<title>draw_lines_to_goal</title>
<polygon fill="#90ee90" stroke="#000000" points="1180.3104,-1525.9103 1053.473,-1525.9103 1053.473,-1489.9103 1180.3104,-1489.9103 1180.3104,-1525.9103"/>
<text text-anchor="middle" x="1116.8917" y="-1503.7103" font-family="Times,serif" font-size="14.00" fill="#000000">draw_lines_to_goal</text>
</g>
<!-- visualize_robot_behavior&#45;&gt;draw_lines_to_goal -->
<g id="edge18" class="edge">
<title>visualize_robot_behavior-&gt;draw_lines_to_goal</title>
<path fill="none" stroke="#000000" d="M893.0142,-1358.3201C938.8203,-1388.9267 1030.9648,-1450.4957 1081.5881,-1484.3211"/>
<polygon fill="#000000" stroke="#000000" points="1079.6808,-1487.2561 1089.9401,-1489.9017 1083.5699,-1481.4358 1079.6808,-1487.2561"/>
</g>
<!-- draw_path -->
<g id="node18" class="node">
<title>draw_path</title>
<polygon fill="#90ee90" stroke="#000000" points="1450.8404,-1584.8603 1375.6663,-1584.8603 1375.6663,-1548.8603 1450.8404,-1548.8603 1450.8404,-1584.8603"/>
<text text-anchor="middle" x="1413.2533" y="-1562.6603" font-family="Times,serif" font-size="14.00" fill="#000000">draw_path</text>
</g>
<!-- visualize_robot_behavior&#45;&gt;draw_path -->
<g id="edge19" class="edge">
<title>visualize_robot_behavior-&gt;draw_path</title>
<path fill="none" stroke="#000000" d="M909.5356,-1358.2136C1011.0579,-1400.2655 1261.4104,-1503.9649 1366.0708,-1547.3166"/>
<polygon fill="#000000" stroke="#000000" points="1364.8597,-1550.6033 1375.4379,-1551.1966 1367.5385,-1544.1361 1364.8597,-1550.6033"/>
</g>
<!-- visualize_robot_behavior&#45;&gt;get_head_position -->
<g id="edge17" class="edge">
<title>visualize_robot_behavior-&gt;get_head_position</title>
<path fill="none" stroke="#000000" d="M858.1016,-1321.8151C824.7294,-1241.2474 690.2962,-916.6969 650.1794,-819.8465"/>
<polygon fill="#000000" stroke="#000000" points="653.3438,-818.3399 646.2833,-810.4405 646.8766,-821.0187 653.3438,-818.3399"/>
</g>
<!-- calculate_scale -->
<g id="node6" class="node">
<title>calculate_scale</title>
<polygon fill="#90ee90" stroke="#000000" points="2292.0053,-467.2427 2191.5569,-467.2427 2191.5569,-431.2427 2292.0053,-431.2427 2292.0053,-467.2427"/>
<text text-anchor="middle" x="2241.7811" y="-445.0427" font-family="Times,serif" font-size="14.00" fill="#000000">calculate_scale</text>
</g>
<!-- get_warped_frame&#45;&gt;calculate_scale -->
<g id="edge20" class="edge">
<title>get_warped_frame-&gt;calculate_scale</title>
<path fill="none" stroke="#000000" d="M2172.4406,-477.9644C2177.7219,-475.7769 2183.1607,-473.5241 2188.5592,-471.2879"/>
<polygon fill="#000000" stroke="#000000" points="2190.2908,-474.3591 2198.1902,-467.2986 2187.612,-467.8919 2190.2908,-474.3591"/>
</g>
<!-- adjust_marker_corners -->
<g id="node7" class="node">
<title>adjust_marker_corners</title>
<polygon fill="#90ee90" stroke="#000000" points="2033.1348,-262.8253 1888.5814,-262.8253 1888.5814,-226.8253 2033.1348,-226.8253 2033.1348,-262.8253"/>
<text text-anchor="middle" x="1960.8581" y="-240.6253" font-family="Times,serif" font-size="14.00" fill="#000000">adjust_marker_corners</text>
</g>
<!-- get_warped_frame&#45;&gt;adjust_marker_corners -->
<g id="edge21" class="edge">
<title>get_warped_frame-&gt;adjust_marker_corners</title>
<path fill="none" stroke="#000000" d="M2116.6603,-477.9998C2087.5113,-434.3753 2013.1642,-323.1069 1978.7886,-271.6602"/>
<polygon fill="#000000" stroke="#000000" points="1981.5134,-269.4382 1973.0475,-263.068 1975.6931,-273.3272 1981.5134,-269.4382"/>
</g>
<!-- detect_aruco_markers&#45;&gt;adjust_marker_corners -->
<g id="edge22" class="edge">
<title>detect_aruco_markers-&gt;adjust_marker_corners</title>
<path fill="none" stroke="#000000" d="M1186.6751,-90.8308C1341.407,-121.6089 1712.6701,-195.4577 1878.4658,-228.4365"/>
<polygon fill="#000000" stroke="#000000" points="1878.1149,-231.9352 1888.6056,-230.4534 1879.4806,-225.0697 1878.1149,-231.9352"/>
</g>
<!-- heuristic -->
<g id="node9" class="node">
<title>heuristic</title>
<polygon fill="#90ee90" stroke="#000000" points="2329.5928,-1330.0313 2265.1798,-1330.0313 2265.1798,-1294.0313 2329.5928,-1294.0313 2329.5928,-1330.0313"/>
<text text-anchor="middle" x="2297.3863" y="-1307.8313" font-family="Times,serif" font-size="14.00" fill="#000000">heuristic</text>
</g>
<!-- astar -->
<g id="node10" class="node">
<title>astar</title>
<polygon fill="#90ee90" stroke="#000000" points="2241.5433,-1436.1236 2187.5433,-1436.1236 2187.5433,-1400.1236 2241.5433,-1400.1236 2241.5433,-1436.1236"/>
<text text-anchor="middle" x="2214.5433" y="-1413.9236" font-family="Times,serif" font-size="14.00" fill="#000000">astar</text>
</g>
<!-- astar&#45;&gt;heuristic -->
<g id="edge24" class="edge">
<title>astar-&gt;heuristic</title>
<path fill="none" stroke="#000000" d="M2228.9734,-1399.6438C2242.2187,-1382.6814 2261.9857,-1357.3668 2276.871,-1338.3041"/>
<polygon fill="#000000" stroke="#000000" points="2279.7256,-1340.3353 2283.1215,-1330.2994 2274.2083,-1336.0271 2279.7256,-1340.3353"/>
</g>
<!-- neighbors -->
<g id="node11" class="node">
<title>neighbors</title>
<polygon fill="#90ee90" stroke="#000000" points="2167.4109,-1542.216 2095.9895,-1542.216 2095.9895,-1506.216 2167.4109,-1506.216 2167.4109,-1542.216"/>
<text text-anchor="middle" x="2131.7002" y="-1520.016" font-family="Times,serif" font-size="14.00" fill="#000000">neighbors</text>
</g>
<!-- astar&#45;&gt;neighbors -->
<g id="edge23" class="edge">
<title>astar-&gt;neighbors</title>
<path fill="none" stroke="#000000" d="M2200.1131,-1436.6035C2186.8679,-1453.5659 2167.1008,-1478.8805 2152.2156,-1497.9432"/>
<polygon fill="#000000" stroke="#000000" points="2149.361,-1495.912 2145.965,-1505.9479 2154.8782,-1500.2202 2149.361,-1495.912"/>
</g>
<!-- send_mqtt_command&#45;&gt;connect_mqtt -->
<g id="edge38" class="edge">
<title>send_mqtt_command-&gt;connect_mqtt</title>
<path fill="none" stroke="#000000" d="M164.2683,-1385.5173C197.0586,-1328.7229 298.222,-1153.5027 337.3282,-1085.7687"/>
<polygon fill="#000000" stroke="#000000" points="340.4519,-1087.3583 342.4208,-1076.948 334.3897,-1083.8583 340.4519,-1087.3583"/>
</g>
<!-- get_bot_position&#45;&gt;detect_aruco_markers -->
<g id="edge36" class="edge">
<title>get_bot_position-&gt;detect_aruco_markers</title>
<path fill="none" stroke="#000000" d="M1357.8576,-29.0189C1312.4662,-38.0478 1247.638,-50.9429 1196.6548,-61.0841"/>
<polygon fill="#000000" stroke="#000000" points="1195.7776,-57.6899 1186.6526,-63.0737 1197.1433,-64.5554 1195.7776,-57.6899"/>
</g>
<!-- calculate_distances&#45;&gt;get_bot_position -->
<g id="edge37" class="edge">
<title>calculate_distances-&gt;get_bot_position</title>
<path fill="none" stroke="#000000" d="M1647.4878,-64.5921C1597.9447,-54.7374 1528.7613,-40.976 1478.4336,-30.9652"/>
<polygon fill="#000000" stroke="#000000" points="1478.8036,-27.4703 1468.3129,-28.952 1477.4379,-34.3358 1478.8036,-27.4703"/>
</g>
<!-- draw_lines_to_goal&#45;&gt;draw_path -->
<g id="edge43" class="edge">
<title>draw_lines_to_goal-&gt;draw_path</title>
<path fill="none" stroke="#000000" d="M1180.1052,-1520.4842C1235.61,-1531.5248 1315.1376,-1547.3438 1365.4768,-1557.3569"/>
<polygon fill="#000000" stroke="#000000" points="1364.9572,-1560.8221 1375.4479,-1559.3403 1366.3229,-1553.9566 1364.9572,-1560.8221"/>
</g>
<!-- get_head_position&#45;&gt;detect_aruco_markers -->
<g id="edge31" class="edge">
<title>get_head_position-&gt;detect_aruco_markers</title>
<path fill="none" stroke="#000000" d="M650.8798,-774.3862C715.5907,-677.5394 1021.6698,-219.4596 1099.0739,-103.6162"/>
<polygon fill="#000000" stroke="#000000" points="1102.004,-105.5308 1104.6496,-95.2716 1096.1837,-101.6418 1102.004,-105.5308"/>
</g>
<!-- get_waste_positions -->
<g id="node20" class="node">
<title>get_waste_positions</title>
<polygon fill="#90ee90" stroke="#000000" points="2404.4203,-686.3248 2275.3442,-686.3248 2275.3442,-650.3248 2404.4203,-650.3248 2404.4203,-686.3248"/>
<text text-anchor="middle" x="2339.8822" y="-664.1248" font-family="Times,serif" font-size="14.00" fill="#000000">get_waste_positions</text>
</g>
<!-- fill_grid_cells_from_corners -->
<g id="node21" class="node">
<title>fill_grid_cells_from_corners</title>
<polygon fill="#90ee90" stroke="#000000" points="2431.1761,-911.0037 2254.2853,-911.0037 2254.2853,-875.0037 2431.1761,-875.0037 2431.1761,-911.0037"/>
<text text-anchor="middle" x="2342.7307" y="-888.8037" font-family="Times,serif" font-size="14.00" fill="#000000">fill_grid_cells_from_corners</text>
</g>
<!-- update_obstacles&#45;&gt;get_waste_positions -->
<g id="edge32" class="edge">
<title>update_obstacles-&gt;get_waste_positions</title>
<path fill="none" stroke="#000000" d="M2209.8145,-774.3842C2236.1905,-752.8767 2280.3875,-716.8378 2309.8365,-692.8246"/>
<polygon fill="#000000" stroke="#000000" points="2312.1863,-695.4247 2317.7245,-686.3926 2307.7626,-689.9996 2312.1863,-695.4247"/>
</g>
<!-- update_obstacles&#45;&gt;fill_grid_cells_from_corners -->
<g id="edge25" class="edge">
<title>update_obstacles-&gt;fill_grid_cells_from_corners</title>
<path fill="none" stroke="#000000" d="M2215.7613,-810.6432C2241.117,-827.0905 2278.5843,-851.3942 2306.2511,-869.3407"/>
<polygon fill="#000000" stroke="#000000" points="2304.5674,-872.4204 2314.8617,-874.9261 2308.3769,-866.5477 2304.5674,-872.4204"/>
</g>
<!-- convert_obstacles_to_grid -->
<g id="node24" class="node">
<title>convert_obstacles_to_grid</title>
<polygon fill="#90ee90" stroke="#000000" points="2210.4701,-1106.7917 2046.9968,-1106.7917 2046.9968,-1070.7917 2210.4701,-1070.7917 2210.4701,-1106.7917"/>
<text text-anchor="middle" x="2128.7335" y="-1084.5917" font-family="Times,serif" font-size="14.00" fill="#000000">convert_obstacles_to_grid</text>
</g>
<!-- update_obstacles&#45;&gt;convert_obstacles_to_grid -->
<g id="edge26" class="edge">
<title>update_obstacles-&gt;convert_obstacles_to_grid</title>
<path fill="none" stroke="#000000" d="M2184.0846,-810.5227C2174.1566,-860.4342 2146.3261,-1000.3477 2134.3404,-1060.6039"/>
<polygon fill="#000000" stroke="#000000" points="2130.8783,-1060.0686 2132.3601,-1070.5593 2137.7438,-1061.4343 2130.8783,-1060.0686"/>
</g>
<!-- convert_to_grid_coordinates -->
<g id="node23" class="node">
<title>convert_to_grid_coordinates</title>
<polygon fill="#90ee90" stroke="#000000" points="2061.0268,-1659.3812 1884.122,-1659.3812 1884.122,-1623.3812 2061.0268,-1623.3812 2061.0268,-1659.3812"/>
<text text-anchor="middle" x="1972.5744" y="-1637.1812" font-family="Times,serif" font-size="14.00" fill="#000000">convert_to_grid_coordinates</text>
</g>
<!-- convert_grid_to_actual&#45;&gt;draw_path -->
<g id="edge42" class="edge">
<title>convert_grid_to_actual-&gt;draw_path</title>
<path fill="none" stroke="#000000" d="M1636.7371,-1522.4066C1581.9701,-1533.3004 1508.5117,-1547.9122 1461.0271,-1557.3575"/>
<polygon fill="#000000" stroke="#000000" points="1460.1366,-1553.9659 1451.0116,-1559.3497 1461.5023,-1560.8314 1460.1366,-1553.9659"/>
</g>
<!-- plan_path&#45;&gt;astar -->
<g id="edge29" class="edge">
<title>plan_path-&gt;astar</title>
<path fill="none" stroke="#000000" d="M1996.6669,-1351.0575C2044.6105,-1365.8154 2129.2276,-1391.862 2177.6947,-1406.781"/>
<polygon fill="#000000" stroke="#000000" points="2176.875,-1410.1907 2187.4621,-1409.7876 2178.9344,-1403.5005 2176.875,-1410.1907"/>
</g>
<!-- plan_path&#45;&gt;convert_to_grid_coordinates -->
<g id="edge27" class="edge">
<title>plan_path-&gt;convert_to_grid_coordinates</title>
<path fill="none" stroke="#000000" d="M1961.5734,-1358.4319C1963.5513,-1409.3034 1969.1042,-1552.126 1971.4769,-1613.1545"/>
<polygon fill="#000000" stroke="#000000" points="1967.9825,-1613.3686 1971.8685,-1623.225 1974.9772,-1613.0966 1967.9825,-1613.3686"/>
</g>
<!-- plan_path&#45;&gt;convert_obstacles_to_grid -->
<g id="edge28" class="edge">
<title>plan_path-&gt;convert_obstacles_to_grid</title>
<path fill="none" stroke="#000000" d="M1972.9313,-1321.9661C2002.0802,-1278.3416 2076.4274,-1167.0733 2110.803,-1115.6266"/>
<polygon fill="#000000" stroke="#000000" points="2113.8985,-1117.2936 2116.5441,-1107.0344 2108.0782,-1113.4046 2113.8985,-1117.2936"/>
</g>
<!-- plan_path&#45;&gt;convert_grid_to_actual -->
<g id="edge30" class="edge">
<title>plan_path-&gt;convert_grid_to_actual</title>
<path fill="none" stroke="#000000" d="M1933.4924,-1358.3201C1887.6863,-1388.9267 1795.5419,-1450.4957 1744.9185,-1484.3211"/>
<polygon fill="#000000" stroke="#000000" points="1742.9368,-1481.4358 1736.5666,-1489.9017 1746.8258,-1487.2561 1742.9368,-1481.4358"/>
</g>
<!-- find_nearest_edge_midpoint_to_robot&#45;&gt;get_head_position -->
<g id="edge33" class="edge">
<title>find_nearest_edge_midpoint_to_robot-&gt;get_head_position</title>
<path fill="none" stroke="#000000" d="M694.1743,-514.1612C684.2463,-564.0727 656.4158,-703.9862 644.4301,-764.2423"/>
<polygon fill="#000000" stroke="#000000" points="640.9681,-763.707 642.4498,-774.1977 647.8336,-765.0727 640.9681,-763.707"/>
</g>
<!-- pickup_waste&#45;&gt;send_mqtt_command -->
<g id="edge39" class="edge">
<title>pickup_waste-&gt;send_mqtt_command</title>
<path fill="none" stroke="#000000" d="M306.2942,-1403.5763C284.2673,-1403.5763 257.3766,-1403.5763 232.347,-1403.5763"/>
<polygon fill="#000000" stroke="#000000" points="232.1251,-1400.0764 222.1251,-1403.5763 232.125,-1407.0764 232.1251,-1400.0764"/>
</g>
<!-- drop_off_waste&#45;&gt;send_mqtt_command -->
<g id="edge40" class="edge">
<title>drop_off_waste-&gt;send_mqtt_command</title>
<path fill="none" stroke="#000000" d="M153.8419,-1076.7107C153.8419,-1133.1567 153.8419,-1306.5798 153.8419,-1375.2006"/>
<polygon fill="#000000" stroke="#000000" points="150.342,-1375.2799 153.8419,-1385.28 157.342,-1375.28 150.342,-1375.2799"/>
</g>
<!-- disconnect_mqtt&#45;&gt;send_mqtt_command -->
<g id="edge41" class="edge">
<title>disconnect_mqtt-&gt;send_mqtt_command</title>
<path fill="none" stroke="#000000" d="M64.7384,-1249.2445C82.2931,-1279.6502 117.7541,-1341.0705 138.2518,-1376.5736"/>
<polygon fill="#000000" stroke="#000000" points="135.3339,-1378.5197 143.3651,-1385.43 141.3961,-1375.0197 135.3339,-1378.5197"/>
</g>
</g>
</svg>